<svg width="785" height="837" viewBox="0 0 785 837" fill="none" xmlns="http://www.w3.org/2000/svg">
<path d="M411.028 117.557L79.1951 249.674L36.2661 266.766L276.218 755.26L279.907 753.792L611.74 621.674L615.429 620.205L454.002 100.447L411.028 117.557Z" fill="#F9F6E4"/>
<path d="M567.252 542.134L567.163 542.169C557.342 546.08 546.177 541.314 542.269 531.498C538.361 521.682 543.106 510.583 552.927 506.672L553.016 506.637C586.168 493.438 612.104 468.189 626.239 435.547C640.358 402.859 640.866 366.637 627.692 333.548L593.067 246.582C579.574 212.693 540.995 196.099 507.088 209.599L451.582 231.698C441.761 235.608 430.641 230.825 426.733 221.009C422.824 211.193 427.614 200.076 437.435 196.165L492.941 174.066C546.446 152.763 607.328 178.951 628.619 232.427L663.244 319.393C680.185 361.943 679.542 408.561 661.384 450.627C643.27 492.675 609.852 525.122 567.279 542.072L567.252 542.134Z" fill="#F9F6E4"/>
<path d="M62.5377 276.889L285.588 730.947L591.912 608.986L441.833 125.874L62.5377 276.889Z" fill="#EDB720"/>
<path d="M635.382 612.261L256.265 763.205C244.582 767.856 238.88 781.092 243.529 792.769L250.779 810.979C255.428 822.655 268.667 828.35 280.35 823.699L659.468 672.755C671.15 668.103 676.852 654.867 672.204 643.191L664.953 624.981C660.304 613.304 647.065 607.609 635.382 612.261Z" fill="#F9F6E4"/>
<path opacity="0.3" d="M278.476 426.79C282.795 425.07 284.904 420.176 283.185 415.859C281.466 411.542 276.571 409.436 272.251 411.156C267.931 412.876 265.823 417.77 267.542 422.087C269.261 426.404 274.156 428.51 278.476 426.79Z" fill="white"/>
<path opacity="0.3" d="M277.228 414.217C277.706 415.416 276.628 416.977 274.851 417.685C273.073 418.393 271.217 418 270.74 416.8C270.263 415.601 271.34 414.04 273.118 413.332C274.895 412.625 276.751 413.018 277.228 414.217Z" fill="white"/>
<path opacity="0.3" d="M315.024 545.613C319.344 543.894 321.452 539 319.733 534.682C318.015 530.365 313.119 528.259 308.8 529.979C304.48 531.699 302.372 536.593 304.091 540.91C305.81 545.228 310.705 547.333 315.024 545.613Z" fill="white"/>
<path opacity="0.3" d="M311.399 536.508C313.191 535.795 314.255 534.242 313.777 533.04C313.298 531.838 311.458 531.442 309.666 532.156C307.875 532.869 306.81 534.422 307.289 535.624C307.767 536.826 309.608 537.222 311.399 536.508Z" fill="white"/>
<path opacity="0.3" d="M309.458 648.787C313.777 647.067 315.886 642.173 314.167 637.856C312.448 633.539 307.552 631.433 303.233 633.153C298.913 634.873 296.805 639.767 298.524 644.084C300.243 648.401 305.138 650.507 309.458 648.787Z" fill="white"/>
<path opacity="0.3" d="M305.832 639.682C307.624 638.969 308.688 637.416 308.21 636.214C307.731 635.012 305.891 634.616 304.099 635.329C302.308 636.043 301.243 637.595 301.722 638.797C302.2 639.999 304.041 640.395 305.832 639.682Z" fill="white"/>
<path opacity="0.3" d="M195.433 371.708C199.753 369.989 201.861 365.095 200.142 360.777C198.423 356.46 193.528 354.354 189.208 356.074C184.889 357.794 182.78 362.688 184.499 367.005C186.218 371.323 191.113 373.428 195.433 371.708Z" fill="white"/>
<path opacity="0.3" d="M194.159 359.197C194.636 360.397 193.559 361.958 191.781 362.665C190.004 363.373 188.148 362.98 187.671 361.781C187.193 360.581 188.271 359.02 190.048 358.313C191.826 357.605 193.681 357.998 194.159 359.197Z" fill="white"/>
<path opacity="0.3" d="M404.593 358.465C406.309 362.773 404.195 367.679 399.884 369.396C395.574 371.112 390.666 369.001 388.95 364.693C387.235 360.384 389.349 355.478 393.66 353.761C397.97 352.045 402.878 354.156 404.593 358.465Z" fill="white"/>
<path opacity="0.3" d="M398.699 356.849C399.176 358.048 398.099 359.609 396.321 360.317C394.544 361.025 392.688 360.632 392.211 359.432C391.733 358.233 392.811 356.672 394.588 355.964C396.366 355.257 398.221 355.65 398.699 356.849Z" fill="white"/>
<path opacity="0.3" d="M421.629 298.321C425.949 296.602 428.057 291.708 426.338 287.39C424.62 283.073 419.724 280.967 415.405 282.687C411.085 284.407 408.977 289.301 410.696 293.618C412.414 297.936 417.31 300.041 421.629 298.321Z" fill="white"/>
<path opacity="0.3" d="M420.399 285.793C420.877 286.992 419.8 288.553 418.022 289.261C416.244 289.969 414.389 289.575 413.911 288.376C413.434 287.177 414.511 285.616 416.289 284.908C418.066 284.2 419.922 284.594 420.399 285.793Z" fill="white"/>
<path opacity="0.3" d="M313.506 327.271C315.221 331.58 313.107 336.486 308.796 338.203C304.486 339.919 299.578 337.808 297.863 333.5C296.147 329.191 298.261 324.285 302.572 322.568C306.882 320.852 311.79 322.963 313.506 327.271Z" fill="white"/>
<path opacity="0.3" d="M307.567 325.674C308.044 326.873 306.967 328.434 305.189 329.142C303.411 329.85 301.556 329.456 301.078 328.257C300.601 327.058 301.678 325.497 303.456 324.789C305.234 324.081 307.089 324.475 307.567 325.674Z" fill="white"/>
<path opacity="0.3" d="M484.6 536.655C488.92 534.935 491.028 530.041 489.309 525.724C487.59 521.407 482.695 519.301 478.376 521.021C474.056 522.741 471.948 527.635 473.666 531.952C475.385 536.269 480.281 538.375 484.6 536.655Z" fill="white"/>
<path opacity="0.3" d="M483.353 524.082C483.83 525.281 482.753 526.842 480.975 527.55C479.197 528.258 477.342 527.864 476.864 526.665C476.387 525.466 477.464 523.905 479.242 523.197C481.02 522.489 482.875 522.883 483.353 524.082Z" fill="white"/>
<path opacity="0.3" d="M367.502 453.453C371.822 451.733 373.93 446.839 372.211 442.521C370.492 438.204 365.597 436.098 361.278 437.818C356.958 439.538 354.85 444.432 356.569 448.75C358.287 453.067 363.183 455.172 367.502 453.453Z" fill="white"/>
<path opacity="0.3" d="M366.255 440.879C366.732 442.079 365.655 443.64 363.877 444.347C362.1 445.055 360.244 444.662 359.766 443.463C359.289 442.264 360.366 440.702 362.144 439.995C363.922 439.287 365.777 439.68 366.255 440.879Z" fill="white"/>
<path opacity="0.3" d="M492.516 465.89C496.836 464.17 498.944 459.276 497.225 454.958C495.506 450.641 490.611 448.535 486.291 450.255C481.972 451.975 479.863 456.869 481.582 461.187C483.301 465.504 488.196 467.609 492.516 465.89Z" fill="white"/>
<path opacity="0.3" d="M491.224 453.334C491.702 454.533 490.624 456.094 488.846 456.802C487.069 457.51 485.213 457.117 484.736 455.917C484.258 454.718 485.336 453.157 487.113 452.449C488.891 451.742 490.747 452.135 491.224 453.334Z" fill="white"/>
<path opacity="0.3" d="M418.369 571.772C422.689 570.052 424.797 565.158 423.078 560.841C421.359 556.524 416.464 554.418 412.144 556.138C407.825 557.858 405.716 562.752 407.435 567.069C409.154 571.386 414.049 573.492 418.369 571.772Z" fill="white"/>
<path opacity="0.3" d="M414.762 562.712C416.553 561.998 417.618 560.445 417.139 559.244C416.661 558.042 414.82 557.645 413.029 558.359C411.237 559.072 410.172 560.625 410.651 561.827C411.129 563.029 412.97 563.425 414.762 562.712Z" fill="white"/>
<g style="mix-blend-mode:multiply" opacity="0.3">
<path d="M245.134 183.607L36.2661 266.766L276.218 755.26L256.265 763.205C244.577 767.858 238.878 781.087 243.529 792.768L250.779 810.979C255.43 822.66 268.662 828.352 280.35 823.699L469.887 748.236L245.09 183.624L245.134 183.607Z" fill="#877116"/>
</g>
<path d="M465.263 90.7146C464.832 88.7253 464.294 86.727 463.516 84.7727C456.318 66.6955 435.835 57.9217 417.792 65.1053C405.038 70.1833 396.89 81.9176 395.757 94.7182C393.414 93.7472 390.982 93.0691 388.433 92.7459C376.952 81.3656 359.427 77.1771 343.429 83.5467C331.83 88.1648 323.509 97.3952 319.555 108.283C311.061 104.924 301.363 104.617 292.208 108.262C278.076 113.889 269.34 127.247 268.914 141.567C266.734 144.236 264.961 147.154 263.579 150.278C258.562 149.702 253.294 150.307 248.272 152.307C245.65 153.351 243.258 154.715 241.124 156.336C230.249 138.591 207.89 130.667 187.892 138.629C177.849 142.628 170.144 149.915 165.483 158.769C165.039 158.946 164.621 159.06 164.177 159.237C152.178 164.015 143.315 173.306 138.783 184.424C135.879 184.758 132.902 185.428 130.058 186.56C120.814 190.241 114.131 197.636 110.989 206.296C110.216 206.553 109.425 206.765 108.625 207.083C104.537 208.711 100.989 211.05 97.955 213.904C89.8599 211.158 80.7829 211.119 72.206 214.534C60.7404 219.099 52.8363 228.729 50.0009 239.841C32.3658 252.574 24.8989 275.975 33.2987 297.072C43.2193 321.989 71.5034 334.192 96.4786 324.248C99.9005 322.886 103.074 321.159 105.973 319.13C120.115 337.839 145.485 345.696 168.327 336.602C191.169 327.507 205.496 302.198 201.197 277.822C210.896 282.141 222.291 282.699 232.956 278.452C248.199 272.383 257.719 258.147 258.617 242.816C267.952 237.556 273.999 228.304 275.403 218.123C283.766 230.333 299.743 235.55 314.053 229.852C323.519 226.084 330.185 218.387 332.972 209.353C337.918 210.008 343.159 209.465 348.136 207.483C353.114 205.502 356.947 202.586 360.053 198.879C371.38 207.543 386.838 210.29 401.058 204.628C402.436 204.08 403.734 203.46 404.97 202.814C415.064 210.064 428.516 212.169 440.87 207.25C460.202 199.553 469.646 177.629 461.954 158.308C460.026 153.467 457.21 149.237 453.752 145.725C454.721 145.442 455.627 145.133 456.56 144.761C472.914 138.25 480.932 119.724 474.407 103.334C472.373 98.2267 469.157 93.8985 465.184 90.6435L465.263 90.7146Z" fill="white"/>
<g style="mix-blend-mode:multiply" opacity="0.1">
<path d="M465.263 90.7147C464.832 88.7253 464.294 86.727 463.516 84.7727C459.519 74.7348 451.414 67.5676 441.916 64.4024C450.586 93.4195 435.786 124.783 407.078 136.213C400.146 138.973 393.038 140.259 386.03 140.374C382.328 144.523 377.615 147.944 372.104 150.138C358.416 155.587 343.457 152.281 333.304 142.945C328.935 147.36 323.6 151.028 317.467 153.47C315.689 154.178 313.947 154.717 312.126 155.185C307.552 169.818 296.721 182.312 281.389 188.417C279.034 189.354 276.679 190.035 274.333 190.608C270.426 199.934 262.978 207.736 252.846 211.77C232.893 219.715 210.324 209.97 202.402 190.072C202.26 189.716 202.136 189.406 202.039 189.033C198.939 189.392 195.857 189.281 192.874 188.771C190.477 192.967 186.785 196.495 181.941 198.424C173.986 201.591 165.321 199.741 159.247 194.441C158.509 194.786 157.744 195.194 156.944 195.512C145.123 200.219 132.231 197.839 122.901 190.439C117.343 194.453 113.265 199.987 110.998 206.19C110.225 206.446 109.434 206.658 108.634 206.977C104.546 208.604 100.998 210.943 97.9641 213.798C89.8689 211.052 80.7919 211.012 72.215 214.427C60.7495 218.992 52.8454 228.623 50.01 239.734C32.3658 252.574 24.8989 275.975 33.2987 297.072C43.2193 321.989 71.5034 334.192 96.4786 324.248C99.9005 322.886 103.074 321.159 105.973 319.13C120.115 337.839 145.485 345.696 168.327 336.602C191.169 327.507 205.496 302.198 201.197 277.822C210.896 282.141 222.291 282.699 232.956 278.452C248.199 272.383 257.719 258.147 258.617 242.816C267.952 237.556 273.999 228.304 275.403 218.123C283.766 230.334 299.743 235.55 314.053 229.852C323.519 226.084 330.185 218.387 332.972 209.353C337.918 210.008 343.159 209.465 348.136 207.483C353.114 205.502 356.947 202.586 360.053 198.879C371.38 207.543 386.838 210.29 401.058 204.628C402.436 204.08 403.734 203.46 404.97 202.814C415.064 210.064 428.516 212.169 440.87 207.25C460.202 199.553 469.646 177.629 461.954 158.308C460.026 153.467 457.21 149.237 453.752 145.725C454.721 145.442 455.627 145.133 456.56 144.761C472.914 138.25 480.932 119.724 474.407 103.335C472.373 98.2267 469.157 93.8985 465.184 90.6435L465.263 90.7147Z" fill="#877116"/>
</g>
</svg>
