<svg width="30" height="30" viewBox="0 0 30 30" fill="none" xmlns="http://www.w3.org/2000/svg">
<path fill-rule="evenodd" clip-rule="evenodd" d="M26.4016 3.384C24.9371 1.91953 22.5629 1.91952 21.0984 3.384L18.9986 5.48375L9.11611 15.3662C8.95591 15.5264 8.84227 15.7272 8.78732 15.9469L7.53732 20.9469C7.43083 21.3729 7.55564 21.8236 7.86611 22.1339C8.17659 22.4444 8.6272 22.5693 9.05317 22.4628L14.0531 21.2128C14.273 21.1578 14.4736 21.0442 14.6339 20.8839L24.4445 11.0734L26.6161 8.90176C28.0806 7.4373 28.0806 5.06292 26.6161 3.59846L26.4016 3.384ZM22.8661 5.15176C23.3542 4.66361 24.1457 4.66361 24.6339 5.15176L24.8484 5.36622C25.3365 5.85438 25.3365 6.64585 24.8484 7.134L23.5777 8.40465L21.6335 6.38441L22.8661 5.15176ZM19.8654 8.1525L21.8096 10.1727L13.111 18.8714L10.468 19.5322L11.1287 16.8892L19.8654 8.1525ZM5 10.0001C5 9.30976 5.55965 8.75011 6.25 8.75011H12.5C13.1904 8.75011 13.75 8.19047 13.75 7.50011C13.75 6.80976 13.1904 6.25011 12.5 6.25011H6.25C4.17894 6.25011 2.5 7.92905 2.5 10.0001V23.7501C2.5 25.8212 4.17894 27.5001 6.25 27.5001H20C22.0711 27.5001 23.75 25.8212 23.75 23.7501V17.5001C23.75 16.8098 23.1904 16.2501 22.5 16.2501C21.8096 16.2501 21.25 16.8098 21.25 17.5001V23.7501C21.25 24.4404 20.6904 25.0001 20 25.0001H6.25C5.55965 25.0001 5 24.4404 5 23.7501V10.0001Z" fill="white" fill-opacity="0.6"/>
</svg>
