<svg width="40" height="40" viewBox="0 0 40 40" fill="none" xmlns="http://www.w3.org/2000/svg">
<g clip-path="url(#clip0_72_835)">
<path d="M19.9999 4.1665C21.3806 4.1665 22.4999 5.28579 22.4999 6.6665C22.4999 8.04722 21.3806 9.1665 19.9999 9.1665H11.6666C11.2064 9.1665 10.8333 9.5396 10.8333 9.99984V29.9998C10.8333 30.46 11.2064 30.8332 11.6666 30.8332H19.1666C20.5473 30.8332 21.6666 31.9525 21.6666 33.3332C21.6666 34.7138 20.5473 35.8332 19.1666 35.8332H11.6666C8.44492 35.8332 5.83325 33.2215 5.83325 29.9998V9.99984C5.83325 6.77817 8.44492 4.1665 11.6666 4.1665H19.9999ZM30.1009 13.518L34.8149 18.232C35.7913 19.2083 35.7913 20.7913 34.8149 21.7677L30.1009 26.4817C29.1246 27.458 27.5417 27.458 26.5654 26.4817C25.5891 25.5053 25.5891 23.9225 26.5654 22.9462L27.0116 22.4998H19.9999C18.6193 22.4998 17.4999 21.3805 17.4999 19.9998C17.4999 18.6192 18.6193 17.4998 19.9999 17.4998H27.0116L26.5654 17.0535C25.5891 16.0773 25.5891 14.4943 26.5654 13.518C27.5417 12.5417 29.1246 12.5417 30.1009 13.518Z" fill="white" fill-opacity="0.6"/>
</g>
<defs>
<clipPath id="clip0_72_835">
<rect width="40" height="40" fill="white"/>
</clipPath>
</defs>
</svg>
