<svg width="24" height="24" viewBox="0 0 24 24" fill="none" xmlns="http://www.w3.org/2000/svg">
<path d="M19.8498 3.83871C19.786 3.71583 19.6899 3.6127 19.5719 3.54044C19.4538 3.46818 19.3182 3.42955 19.1798 3.42871H4.17984C4.04141 3.42955 3.90584 3.46818 3.78776 3.54044C3.66968 3.6127 3.57359 3.71583 3.50984 3.83871C3.4462 3.96194 3.41899 4.10075 3.43139 4.23889C3.44379 4.37703 3.49528 4.50878 3.57984 4.61871L8.92984 11.9287V19.6787C8.93243 19.8768 9.01228 20.0661 9.15237 20.2062C9.29247 20.3463 9.48173 20.4261 9.67984 20.4287H13.6798C13.8779 20.4261 14.0672 20.3463 14.2073 20.2062C14.3474 20.0661 14.4272 19.8768 14.4298 19.6787V11.9287L19.7798 4.61871C19.8644 4.50878 19.9158 4.37703 19.9282 4.23889C19.9406 4.10075 19.9134 3.96194 19.8498 3.83871Z" fill="white" fill-opacity="0.89"/>
</svg>
