<svg width="48" height="48" viewBox="0 0 48 48" fill="none" xmlns="http://www.w3.org/2000/svg">
<path d="M24 23.2544C26.0056 23.2544 27.9291 22.4576 29.3473 21.0395C30.7655 19.6213 31.5623 17.6978 31.5623 15.6921C31.5623 13.6865 30.7655 11.763 29.3473 10.3448C27.9291 8.92662 26.0056 8.12988 24 8.12988C21.9944 8.12988 20.0709 8.92662 18.6527 10.3448C17.2345 11.763 16.4377 13.6865 16.4377 15.6921C16.4377 17.6978 17.2345 19.6213 18.6527 21.0395C20.0709 22.4576 21.9944 23.2544 24 23.2544ZM24 26.5769C13.9455 26.5769 7.5 32.1254 7.5 34.8269V39.8714H40.5V34.8269C40.5 31.5599 34.398 26.5769 24 26.5769Z" fill="white" fill-opacity="0.6"/>
</svg>
