<svg width="21" height="21" viewBox="0 0 21 21" fill="none" xmlns="http://www.w3.org/2000/svg">
<g clip-path="url(#clip0_72_824)">
<path d="M11.5293 0C6.30723 0 2.05875 4.24848 2.05875 9.47051C2.05875 11.3211 2.59273 13.0491 3.51411 14.5094L0.61619 17.4073C-0.205722 18.2292 -0.205722 19.5617 0.61619 20.3836C1.4381 21.2055 2.77062 21.2055 3.59245 20.3836L6.49037 17.4857C7.95073 18.407 9.67872 18.941 11.5293 18.941C16.7513 18.941 20.9998 14.6925 20.9998 9.47051C20.9998 4.24848 16.7514 0 11.5293 0ZM11.5293 16.8365C7.46769 16.8365 4.1633 13.5321 4.1633 9.47051C4.1633 5.40894 7.46765 2.10455 11.5293 2.10455C15.5909 2.10455 18.8952 5.40894 18.8952 9.47051C18.8952 13.5321 15.5909 16.8365 11.5293 16.8365Z" fill="white" fill-opacity="0.3"/>
</g>
<defs>
<clipPath id="clip0_72_824">
<rect width="21" height="21" fill="white"/>
</clipPath>
</defs>
</svg>
