<svg width="54" height="54" viewBox="0 0 54 54" fill="none" xmlns="http://www.w3.org/2000/svg">
<g opacity="0.9" clip-path="url(#clip0_65_309)">
<path fill-rule="evenodd" clip-rule="evenodd" d="M54 27C54 41.9117 41.9117 54 27 54C12.0883 54 0 41.9117 0 27C0 12.0883 12.0883 0 27 0C41.9117 0 54 12.0883 54 27ZM27.9676 19.9326C25.3414 21.0249 20.0928 23.2857 12.2218 26.715C10.9436 27.2232 10.2741 27.7205 10.2131 28.2067C10.1101 29.0284 11.1391 29.3519 12.5403 29.7925C12.7309 29.8525 12.9284 29.9146 13.1309 29.9804C14.5094 30.4285 16.3639 30.9527 17.3279 30.9736C18.2024 30.9925 19.1784 30.6319 20.2559 29.892C27.6101 24.9278 31.4064 22.4186 31.6447 22.3645C31.8128 22.3263 32.0458 22.2783 32.2037 22.4187C32.3616 22.559 32.3461 22.8247 32.3294 22.896C32.2274 23.3306 28.1883 27.0857 26.098 29.029C25.4464 29.6348 24.9842 30.0645 24.8897 30.1627C24.678 30.3825 24.4623 30.5905 24.255 30.7904C22.9742 32.025 22.0138 32.9508 24.3081 34.4628C25.4107 35.1893 26.293 35.7902 27.1732 36.3896C28.1344 37.0442 29.0932 37.6971 30.3336 38.5102C30.6497 38.7174 30.9515 38.9326 31.2455 39.1422C32.3642 39.9397 33.3692 40.6562 34.6108 40.5419C35.3323 40.4755 36.0775 39.7971 36.456 37.7738C37.3505 32.9921 39.1087 22.6315 39.515 18.3622C39.5506 17.9881 39.5058 17.5094 39.4698 17.2993C39.4339 17.0891 39.3587 16.7897 39.0856 16.5681C38.7621 16.3056 38.2627 16.2503 38.0393 16.2542C37.0238 16.2721 35.4657 16.8138 27.9676 19.9326Z" fill="white"/>
</g>
<defs>
<clipPath id="clip0_65_309">
<rect width="54" height="54" fill="white"/>
</clipPath>
</defs>
</svg>
