<svg width="54" height="54" viewBox="0 0 54 54" fill="none" xmlns="http://www.w3.org/2000/svg">
<g opacity="0.9" clip-path="url(#clip0_65_310)">
<path fill-rule="evenodd" clip-rule="evenodd" d="M3.7959 3.7959C0 7.59179 0 13.7012 0 25.92V28.08C0 40.2989 0 46.4082 3.7959 50.2041C7.59179 54 13.7012 54 25.92 54H28.08C40.2989 54 46.4082 54 50.2041 50.2041C54 46.4082 54 40.2989 54 28.08V25.92C54 13.7012 54 7.59179 50.2041 3.7959C46.4082 0 40.2989 0 28.08 0H25.92C13.7012 0 7.59179 0 3.7959 3.7959ZM9.11263 16.4251C9.40513 30.4651 16.4251 38.9026 28.7326 38.9026H29.4302V30.8701C33.9527 31.3201 37.3725 34.6276 38.745 38.9026H45.1351C43.3801 32.5126 38.7674 28.9801 35.8874 27.6301C38.7674 25.9651 42.8174 21.9151 43.7849 16.4251H37.9798C36.7198 20.8801 32.9852 24.9301 29.4302 25.3126V16.4251H23.625V31.9951C20.025 31.0951 15.4801 26.7301 15.2776 16.4251H9.11263Z" fill="white"/>
</g>
<defs>
<clipPath id="clip0_65_310">
<rect width="54" height="54" fill="white"/>
</clipPath>
</defs>
</svg>
