<svg width="54" height="54" viewBox="0 0 54 54" fill="none" xmlns="http://www.w3.org/2000/svg">
<g opacity="0.9">
<path d="M0 54L3.79574 40.1333C1.4535 36.0742 0.22275 31.473 0.225 26.7547C0.23175 12.0037 12.2355 0 26.9842 0C34.1414 0.00225 40.8599 2.79 45.9134 7.848C50.9646 12.906 53.7456 19.629 53.7434 26.7795C53.7366 41.5328 41.7329 53.5365 26.9842 53.5365C22.5067 53.5343 18.0945 52.4115 14.1862 50.2785L0 54ZM14.8432 45.4342C18.6142 47.673 22.2142 49.014 26.9752 49.0163C39.2332 49.0163 49.2186 39.0397 49.2254 26.775C49.2299 14.4855 39.2917 4.5225 26.9932 4.518C14.7262 4.518 4.74749 14.4945 4.74299 26.757C4.74074 31.7633 6.20774 35.5117 8.67148 39.4335L6.42374 47.6415L14.8432 45.4342ZM40.4639 33.1403C40.2974 32.8613 39.8519 32.6948 39.1814 32.3595C38.5132 32.0243 35.2259 30.4065 34.6117 30.1838C33.9997 29.961 33.5542 29.8485 33.1064 30.519C32.6609 31.1873 31.3784 32.6948 30.9892 33.1403C30.5999 33.5858 30.2084 33.642 29.5402 33.3068C28.8719 32.9715 26.7164 32.2673 24.1627 29.988C22.1759 28.215 20.8327 26.0257 20.4435 25.3552C20.0542 24.687 20.403 24.3248 20.736 23.9918C21.0375 23.6925 21.4042 23.211 21.7395 22.8195C22.0792 22.4325 22.1895 22.1535 22.4144 21.7058C22.6372 21.2603 22.527 20.8688 22.3582 20.5335C22.1895 20.2005 20.853 16.9088 20.2972 15.57C19.7527 14.2673 19.2015 14.4427 18.792 14.4225L17.5095 14.4C17.064 14.4 16.3395 14.5665 15.7275 15.237C15.1155 15.9075 13.3875 17.523 13.3875 20.8148C13.3875 24.1065 15.7837 27.2857 16.1167 27.7312C16.452 28.1768 20.8305 34.9313 27.5377 37.827C29.1329 38.5155 30.3794 38.9272 31.3492 39.2355C32.9512 39.744 34.4092 39.672 35.5612 39.501C36.8459 39.3097 39.5167 37.8832 40.0747 36.3218C40.6327 34.758 40.6327 33.4193 40.4639 33.1403Z" fill="white"/>
</g>
</svg>
