<svg width="964" height="946" viewBox="0 0 964 946" fill="none" xmlns="http://www.w3.org/2000/svg">
<rect x="2" y="2" width="960" height="904" fill="#383838"/>
<rect x="1" y="1" width="962" height="906" stroke="white" stroke-opacity="0.5" stroke-width="2"/>
<line y1="-1.5" x2="79.7008" y2="-1.5" transform="matrix(0.890826 0.454345 0.582384 -0.812913 767 907)" stroke="white" stroke-opacity="0.5" stroke-width="3"/>
<path d="M784.786 875.207V879.65H787.081C788.273 879.65 789.122 879.452 789.63 879.055C790.144 878.651 790.402 878.085 790.402 877.355C790.402 876.626 790.167 876.079 789.698 875.715C789.23 875.344 788.455 875.158 787.374 875.158C786.847 875.158 786.336 875.165 785.841 875.178C785.346 875.184 784.995 875.194 784.786 875.207ZM793.038 883.898C793.038 884.686 792.843 885.399 792.452 886.037C792.068 886.669 791.469 887.17 790.656 887.541C789.848 887.912 788.803 888.098 787.521 888.098C786.381 888.098 785.402 888.088 784.581 888.068C783.767 888.049 783.169 888.026 782.784 888C782.856 887.609 782.898 887.014 782.911 886.213C782.924 885.406 782.931 884.52 782.931 883.557V878.234C782.931 877.277 782.924 876.389 782.911 875.568C782.898 874.742 782.856 874.133 782.784 873.742C783.214 873.71 783.859 873.687 784.718 873.674C785.584 873.654 786.502 873.645 787.472 873.645C788.969 873.645 790.148 873.895 791.007 874.396C791.873 874.898 792.306 875.786 792.306 877.062C792.306 877.883 792.072 878.547 791.603 879.055C791.141 879.556 790.577 879.934 789.913 880.188C790.415 880.318 790.903 880.52 791.378 880.793C791.86 881.06 792.257 881.441 792.57 881.936C792.882 882.43 793.038 883.085 793.038 883.898ZM784.786 881.164V886.486C785.014 886.493 785.363 886.503 785.831 886.516C786.3 886.529 786.879 886.535 787.57 886.535C788.195 886.535 788.777 886.457 789.318 886.301C789.858 886.145 790.294 885.874 790.626 885.49C790.965 885.106 791.134 884.576 791.134 883.898C791.134 882.948 790.818 882.255 790.187 881.818C789.562 881.382 788.657 881.164 787.472 881.164H784.786ZM802.228 878.039H804.474C804.142 878.475 803.868 878.833 803.654 879.113C803.439 879.393 803.247 879.65 803.077 879.885C802.915 880.113 802.729 880.376 802.521 880.676L800.909 883.068L802.57 885.363C802.804 885.689 803.006 885.962 803.175 886.184C803.344 886.398 803.53 886.639 803.732 886.906C803.94 887.173 804.22 887.538 804.572 888H802.325L799.738 884.387L797.198 888H794.952C795.31 887.531 795.594 887.157 795.802 886.877C796.017 886.597 796.206 886.346 796.368 886.125C796.531 885.904 796.71 885.65 796.906 885.363L798.663 882.824L797.101 880.676C796.886 880.37 796.691 880.103 796.515 879.875C796.339 879.641 796.141 879.387 795.919 879.113C795.698 878.833 795.408 878.475 795.05 878.039H797.296L799.835 881.555L802.228 878.039ZM805.997 883.068C805.997 881.949 806.212 881.001 806.642 880.227C807.078 879.445 807.654 878.853 808.37 878.449C809.093 878.046 809.881 877.844 810.734 877.844C811.632 877.844 812.42 878.046 813.097 878.449C813.781 878.853 814.314 879.445 814.698 880.227C815.083 881.001 815.275 881.949 815.275 883.068C815.275 884.188 815.057 885.132 814.62 885.9C814.191 886.669 813.618 887.251 812.902 887.648C812.185 888.046 811.398 888.244 810.538 888.244C809.646 888.244 808.859 888.046 808.175 887.648C807.491 887.251 806.958 886.669 806.573 885.9C806.189 885.132 805.997 884.188 805.997 883.068ZM807.804 883.068C807.804 884.208 808.064 885.096 808.585 885.734C809.113 886.366 809.796 886.682 810.636 886.682C811.424 886.682 812.091 886.366 812.638 885.734C813.191 885.096 813.468 884.208 813.468 883.068C813.468 881.923 813.204 881.027 812.677 880.383C812.156 879.732 811.476 879.406 810.636 879.406C809.848 879.406 809.178 879.732 808.624 880.383C808.077 881.027 807.804 881.923 807.804 883.068ZM816.447 886.584H817.814C818.452 885.386 819.005 884.12 819.474 882.785C819.949 881.444 820.323 879.862 820.597 878.039H826.554C826.489 878.553 826.447 879.243 826.427 880.109C826.414 880.969 826.407 881.874 826.407 882.824V886.584H827.97V892.297H826.554C826.554 891.88 826.544 891.415 826.525 890.9C826.512 890.393 826.486 889.882 826.447 889.367C826.407 888.859 826.346 888.404 826.261 888H818.156C818.077 888.404 818.016 888.859 817.97 889.367C817.931 889.882 817.902 890.393 817.882 890.9C817.869 891.415 817.863 891.88 817.863 892.297H816.447V886.584ZM819.669 886.584H824.698V879.455H822.111C821.831 880.777 821.482 882.02 821.066 883.186C820.656 884.351 820.19 885.484 819.669 886.584Z" fill="white" fill-opacity="0.5"/>
<mask id="path-5-inside-1_84_76" fill="white">
<path fill-rule="evenodd" clip-rule="evenodd" d="M134 246H2V303H134V625H192V303V296C192 268.386 169.614 246 142 246H134Z"/>
</mask>
<path fill-rule="evenodd" clip-rule="evenodd" d="M134 246H2V303H134V625H192V303V296C192 268.386 169.614 246 142 246H134Z" fill="#383838"/>
<path d="M2 246V245H1V246H2ZM2 303H1V304H2V303ZM134 303H135V302H134V303ZM134 625H133V626H134V625ZM192 625V626H193V625H192ZM2 247H134V245H2V247ZM3 303V246H1V303H3ZM134 302H2V304H134V302ZM135 625V303H133V625H135ZM192 624H134V626H192V624ZM191 303V625H193V303H191ZM191 296V303H193V296H191ZM142 247C169.062 247 191 268.938 191 296H193C193 267.833 170.167 245 142 245V247ZM134 247H142V245H134V247Z" fill="white" fill-opacity="0.3" mask="url(#path-5-inside-1_84_76)"/>
<circle cx="245.37" cy="298" r="17" fill="#383838"/>
<circle cx="245.37" cy="298" r="16.5" stroke="white" stroke-opacity="0.3"/>
<circle cx="245.37" cy="357" r="17" fill="#383838"/>
<circle cx="245.37" cy="357" r="16.5" stroke="white" stroke-opacity="0.3"/>
<circle cx="245.37" cy="416" r="17" fill="#383838"/>
<circle cx="245.37" cy="416" r="16.5" stroke="white" stroke-opacity="0.3"/>
<circle cx="245.37" cy="475" r="17" fill="#383838"/>
<circle cx="245.37" cy="475" r="16.5" stroke="white" stroke-opacity="0.3"/>
<circle cx="245.37" cy="534" r="17" fill="#383838"/>
<circle cx="245.37" cy="534" r="16.5" stroke="white" stroke-opacity="0.3"/>
<circle cx="245.37" cy="593" r="17" fill="#383838"/>
<circle cx="245.37" cy="593" r="16.5" stroke="white" stroke-opacity="0.3"/>
<path d="M47.5645 443.164V448.486C47.7467 448.493 48.0365 448.503 48.4336 448.516C48.8372 448.529 49.3125 448.535 49.8594 448.535C50.4844 448.535 51.0573 448.441 51.5781 448.252C52.1055 448.063 52.5286 447.76 52.8477 447.344C53.1667 446.927 53.3262 446.38 53.3262 445.703C53.3262 444.805 53.0169 444.157 52.3984 443.76C51.7799 443.363 50.901 443.164 49.7617 443.164H47.5645ZM45.5625 435.742H54.3027V437.5C53.9121 437.428 53.3457 437.386 52.6035 437.373C51.8613 437.36 51.0085 437.354 50.0449 437.354H47.5645V441.65H49.7617C51.6888 441.65 53.082 442.021 53.9414 442.764C54.8008 443.506 55.2305 444.486 55.2305 445.703C55.2305 446.491 55.0384 447.22 54.6543 447.891C54.2767 448.555 53.6875 449.089 52.8867 449.492C52.0924 449.896 51.0703 450.098 49.8203 450.098C49.3255 450.098 48.8275 450.091 48.3262 450.078C47.8249 450.072 47.3659 450.062 46.9492 450.049C46.5326 450.036 46.1973 450.023 45.9434 450.01C45.6895 450.003 45.5625 450 45.5625 450C45.6341 449.609 45.6764 449.014 45.6895 448.213C45.7025 447.406 45.709 446.52 45.709 445.557V439.99C45.709 439.027 45.7025 438.177 45.6895 437.441C45.6764 436.699 45.6341 436.133 45.5625 435.742ZM66.959 450H65.25C65.1589 449.792 65.0775 449.489 65.0059 449.092C64.9408 448.688 64.8919 448.275 64.8594 447.852C64.8268 447.422 64.8105 447.064 64.8105 446.777V445.996C64.5566 446.667 64.2311 447.331 63.834 447.988C63.4368 448.639 62.9714 449.18 62.4375 449.609C61.9036 450.033 61.2949 450.244 60.6113 450.244C59.791 450.244 59.0977 449.883 58.5312 449.16C57.9648 448.431 57.6816 447.376 57.6816 445.996C57.6816 445.221 57.7858 444.469 57.9941 443.74C58.2025 443.005 58.5215 442.344 58.9512 441.758C59.3809 441.172 59.9277 440.706 60.5918 440.361C61.2559 440.016 62.0436 439.844 62.9551 439.844C63.5866 439.844 64.1823 439.886 64.7422 439.971C65.3021 440.049 65.8294 440.153 66.3242 440.283V444.824C66.3242 446.055 66.3828 447.09 66.5 447.93C66.6172 448.763 66.7702 449.453 66.959 450ZM64.5176 442.822V441.582C64.3548 441.549 64.1497 441.514 63.9023 441.475C63.6615 441.429 63.2969 441.406 62.8086 441.406C61.9622 441.406 61.2949 441.628 60.8066 442.07C60.3249 442.507 59.9831 443.073 59.7812 443.77C59.5859 444.466 59.4883 445.208 59.4883 445.996C59.4883 446.751 59.6283 447.373 59.9082 447.861C60.1882 448.343 60.5202 448.584 60.9043 448.584C61.2493 448.584 61.5944 448.434 61.9395 448.135C62.2845 447.829 62.61 447.438 62.916 446.963C63.2285 446.481 63.502 445.977 63.7363 445.449C63.9772 444.915 64.166 444.414 64.3027 443.945C64.446 443.477 64.5176 443.102 64.5176 442.822ZM69.4004 454.785V445.264C69.4004 444.046 69.3743 443.011 69.3223 442.158C69.2702 441.299 69.1335 440.592 68.9121 440.039H70.6699C70.7415 440.202 70.8132 440.439 70.8848 440.752C70.9564 441.064 71.015 441.445 71.0605 441.895C71.5228 441.289 72.0599 440.798 72.6719 440.42C73.2839 440.036 73.9512 439.844 74.6738 439.844C75.416 439.844 76.0638 440.055 76.6172 440.479C77.1771 440.902 77.61 441.484 77.916 442.227C78.2285 442.969 78.3848 443.818 78.3848 444.775C78.3848 445.889 78.1829 446.855 77.7793 447.676C77.3822 448.49 76.8483 449.121 76.1777 449.57C75.5072 450.02 74.7617 450.244 73.9414 450.244C73.4206 450.244 72.9486 450.146 72.5254 449.951C72.1087 449.756 71.6693 449.495 71.207 449.17V451.465C71.207 452.246 71.2266 452.891 71.2656 453.398C71.3047 453.906 71.3665 454.368 71.4512 454.785H69.4004ZM71.207 444.385V447.461C71.6562 447.773 72.0273 448.014 72.3203 448.184C72.6133 448.353 72.8802 448.47 73.1211 448.535C73.3685 448.6 73.6419 448.633 73.9414 448.633C74.4036 448.633 74.8333 448.49 75.2305 448.203C75.6341 447.917 75.9596 447.507 76.207 446.973C76.4544 446.439 76.5781 445.804 76.5781 445.068C76.5781 443.981 76.3796 443.115 75.9824 442.471C75.5853 441.826 75.0352 441.504 74.332 441.504C73.7721 441.504 73.2025 441.748 72.623 442.236C72.0436 442.725 71.5716 443.441 71.207 444.385Z" fill="white" fill-opacity="0.3"/>
<line y1="-1.5" x2="79.7008" y2="-1.5" transform="matrix(0.890826 -0.454345 0.582384 0.812913 24.5183 668.212)" stroke="white" stroke-opacity="0.3" stroke-width="3"/>
<line y1="-1.5" x2="73.4555" y2="-1.5" transform="matrix(-0.564716 0.825286 0.899004 0.43794 607.629 755)" stroke="white" stroke-opacity="0.3" stroke-width="3"/>
<rect x="2" y="668" width="564.148" height="238" fill="#333333"/>
<rect x="2.5" y="668.5" width="563.148" height="237" stroke="white" stroke-opacity="0.3"/>
<path d="M383.196 797L383.078 795.477L386.887 779.891H389.465C389.278 780.367 389.086 780.914 388.891 781.531C388.696 782.148 388.438 783.027 388.117 784.168L384.543 797H383.196ZM378.977 779.891L383.43 795.477L383.196 797H381.906L377.453 781.707L376.809 779.891H378.977ZM372.649 797L372.414 795.477L376.809 779.891H378.977L378.332 781.707L373.879 797H372.649ZM368.899 779.891L372.766 795.477L372.649 797H371.242L367.668 784.168C367.356 783.051 367.098 782.176 366.895 781.543C366.692 780.902 366.5 780.352 366.321 779.891H368.899ZM404.172 793.074L404.641 795.359C404.188 795.781 403.633 796.137 402.977 796.426C402.328 796.707 401.653 796.922 400.949 797.07C400.254 797.219 399.61 797.293 399.016 797.293C397.438 797.293 396.074 796.941 394.926 796.238C393.778 795.535 392.891 794.539 392.266 793.25C391.649 791.961 391.34 790.438 391.34 788.68C391.34 787.172 391.555 785.852 391.985 784.719C392.414 783.578 393 782.629 393.742 781.871C394.492 781.113 395.34 780.547 396.285 780.172C397.231 779.789 398.219 779.598 399.25 779.598C400.086 779.598 400.953 779.715 401.852 779.949C402.758 780.184 403.629 780.613 404.465 781.238L403.762 783.348C403.028 782.684 402.27 782.227 401.489 781.977C400.707 781.719 399.961 781.59 399.25 781.59C398.164 781.59 397.196 781.844 396.344 782.352C395.5 782.859 394.836 783.617 394.352 784.625C393.867 785.633 393.625 786.887 393.625 788.387C393.625 789.785 393.864 791 394.34 792.031C394.817 793.055 395.469 793.848 396.297 794.41C397.133 794.965 398.078 795.242 399.133 795.242C400.024 795.242 400.922 795.047 401.828 794.656C402.735 794.258 403.516 793.73 404.172 793.074ZM415.961 778.25H417.719L407.992 799.871H406.235L415.961 778.25ZM435.18 797L435.063 795.477L438.871 779.891H441.449C441.262 780.367 441.071 780.914 440.875 781.531C440.68 782.148 440.422 783.027 440.102 784.168L436.528 797H435.18ZM430.961 779.891L435.414 795.477L435.18 797H433.891L429.438 781.707L428.793 779.891H430.961ZM424.633 797L424.399 795.477L428.793 779.891H430.961L430.317 781.707L425.864 797H424.633ZM420.883 779.891L424.75 795.477L424.633 797H423.227L419.653 784.168C419.34 783.051 419.082 782.176 418.879 781.543C418.676 780.902 418.485 780.352 418.305 779.891H420.883ZM452.582 794.598L457.68 779.891H459.637L458.664 782.668L453.754 797H451.469L446.547 782.668L445.551 779.891H447.543L452.582 794.598ZM444.906 779.891H446.957L446.629 782.879L446.254 797H444.086C444.133 796.672 444.18 796.121 444.227 795.348C444.274 794.566 444.324 793.652 444.379 792.605C444.434 791.559 444.485 790.457 444.531 789.301C444.586 788.137 444.633 787 444.672 785.891C444.719 784.781 444.758 783.773 444.789 782.867C444.828 781.961 444.856 781.238 444.871 780.699C444.895 780.16 444.906 779.891 444.906 779.891ZM461.078 797H458.91L458.582 782.879L458.207 779.891H460.258C460.297 781.164 460.344 782.512 460.399 783.934C460.453 785.355 460.508 786.766 460.563 788.164C460.625 789.562 460.684 790.867 460.739 792.078C460.801 793.289 460.86 794.328 460.914 795.195C460.977 796.055 461.031 796.656 461.078 797Z" fill="white" fill-opacity="0.3"/>
<path d="M86.747 773.074L87.2158 775.359C86.7626 775.781 86.2079 776.137 85.5517 776.426C84.9033 776.707 84.2275 776.922 83.5244 777.07C82.829 777.219 82.1845 777.293 81.5908 777.293C80.0126 777.293 78.6494 776.941 77.5009 776.238C76.3525 775.535 75.4658 774.539 74.8408 773.25C74.2236 771.961 73.915 770.438 73.915 768.68C73.915 767.172 74.1298 765.852 74.5595 764.719C74.9892 763.578 75.5751 762.629 76.3173 761.871C77.0673 761.113 77.915 760.547 78.8603 760.172C79.8056 759.789 80.7939 759.598 81.8251 759.598C82.6611 759.598 83.5283 759.715 84.4267 759.949C85.3329 760.184 86.204 760.613 87.04 761.238L86.3369 763.348C85.6025 762.684 84.8447 762.227 84.0634 761.977C83.2822 761.719 82.5361 761.59 81.8251 761.59C80.7392 761.59 79.7704 761.844 78.9189 762.352C78.0751 762.859 77.4111 763.617 76.9267 764.625C76.4423 765.633 76.2001 766.887 76.2001 768.387C76.2001 769.785 76.4384 771 76.915 772.031C77.3915 773.055 78.0439 773.848 78.872 774.41C79.7079 774.965 80.6533 775.242 81.7079 775.242C82.5986 775.242 83.497 775.047 84.4033 774.656C85.3095 774.258 86.0908 773.73 86.747 773.074ZM98.5361 766.746H95.1962C95.0478 768.574 94.8251 770.109 94.5283 771.352C94.2314 772.586 93.8681 773.609 93.4384 774.422C92.9384 775.359 92.3486 776.043 91.6689 776.473C90.9892 776.902 90.2119 777.117 89.3369 777.117V775.008C89.79 775.008 90.2353 774.898 90.6728 774.68C91.1103 774.453 91.4853 774.035 91.7978 773.426C92.0478 772.949 92.2626 772.387 92.4423 771.738C92.622 771.09 92.7783 770.238 92.9111 769.184C93.0439 768.121 93.1611 766.742 93.2626 765.047H100.821C100.767 765.375 100.731 765.844 100.716 766.453C100.708 767.055 100.704 767.758 100.704 768.562V773.484C100.704 774.383 100.708 775.117 100.716 775.688C100.731 776.258 100.767 776.695 100.821 777H98.5361V766.746ZM112.856 769.195L107.571 782.742H105.11C105.548 781.898 105.989 780.98 106.435 779.988C106.88 778.996 107.263 778.062 107.583 777.188L112.083 765.047H114.544C114.153 765.953 113.825 766.738 113.56 767.402C113.302 768.059 113.067 768.656 112.856 769.195ZM109.622 776.297L108.509 778.934L104.583 769.207C104.372 768.676 104.114 768.078 103.81 767.414C103.513 766.75 103.145 765.961 102.708 765.047H105.169L109.622 776.297ZM124.915 765.047V777H122.747V765.047H124.915ZM124.095 771.609V769.91H125.911C126.177 769.91 126.466 769.828 126.778 769.664C127.091 769.5 127.368 769.172 127.61 768.68C127.751 768.406 127.884 768.074 128.009 767.684C128.134 767.293 128.263 766.914 128.395 766.547C128.528 766.18 128.677 765.895 128.841 765.691C129.31 765.105 129.915 764.812 130.657 764.812C130.829 764.812 131.024 764.828 131.243 764.859C131.47 764.891 131.704 764.953 131.946 765.047L131.477 766.828C131.337 766.766 131.22 766.727 131.126 766.711C131.04 766.695 130.942 766.688 130.833 766.688C130.489 766.688 130.255 766.844 130.13 767.156C130.036 767.398 129.942 767.672 129.849 767.977C129.755 768.281 129.653 768.594 129.544 768.914C129.427 769.25 129.294 769.547 129.145 769.805C129.005 770.062 128.767 770.293 128.431 770.496C128.915 770.637 129.364 771.02 129.778 771.645C130.2 772.285 130.579 773.094 130.915 774.07C131.259 775.047 131.563 776.023 131.829 777H129.602C129.321 775.766 129.048 774.789 128.782 774.07C128.524 773.352 128.212 772.785 127.845 772.371C127.649 772.145 127.415 771.961 127.142 771.82C126.876 771.68 126.583 771.609 126.263 771.609H124.095ZM123.567 771.609H121.399C121.087 771.609 120.794 771.68 120.52 771.82C120.247 771.961 120.013 772.145 119.817 772.371C119.458 772.785 119.145 773.352 118.88 774.07C118.614 774.789 118.341 775.766 118.06 777H115.833C116.099 776.023 116.407 775.039 116.759 774.047C117.11 773.047 117.497 772.227 117.919 771.586C118.31 771 118.747 770.637 119.231 770.496C118.895 770.293 118.653 770.062 118.505 769.805C118.364 769.547 118.235 769.25 118.118 768.914C118.009 768.594 117.907 768.281 117.813 767.977C117.72 767.672 117.626 767.398 117.532 767.156C117.407 766.844 117.173 766.688 116.829 766.688C116.727 766.688 116.63 766.695 116.536 766.711C116.442 766.727 116.325 766.766 116.185 766.828L115.716 765.047C115.958 764.953 116.188 764.891 116.407 764.859C116.634 764.828 116.833 764.812 117.005 764.812C117.747 764.812 118.352 765.105 118.821 765.691C118.985 765.895 119.134 766.18 119.267 766.547C119.399 766.914 119.528 767.293 119.653 767.684C119.786 768.074 119.919 768.406 120.052 768.68C120.302 769.172 120.579 769.5 120.884 769.664C121.196 769.828 121.485 769.91 121.751 769.91H123.567V771.609ZM144.485 771.316H136.177C136.216 772.684 136.583 773.699 137.278 774.363C137.981 775.027 138.864 775.359 139.927 775.359C140.685 775.359 141.427 775.273 142.153 775.102C142.888 774.922 143.61 774.617 144.321 774.188L144.556 776.121C143.727 776.551 142.927 776.852 142.153 777.023C141.38 777.203 140.54 777.293 139.634 777.293C138.642 777.293 137.716 777.062 136.856 776.602C136.005 776.141 135.317 775.457 134.794 774.551C134.27 773.645 134.009 772.527 134.009 771.199C134.009 769.902 134.235 768.777 134.688 767.824C135.149 766.871 135.798 766.133 136.634 765.609C137.477 765.078 138.477 764.812 139.634 764.812C140.602 764.812 141.399 764.977 142.024 765.305C142.657 765.633 143.153 766.07 143.513 766.617C143.872 767.164 144.126 767.77 144.274 768.434C144.423 769.09 144.497 769.746 144.497 770.402C144.497 770.504 144.497 770.656 144.497 770.859C144.497 771.055 144.493 771.207 144.485 771.316ZM136.27 769.676H142.388C142.388 768.668 142.11 767.898 141.556 767.367C141.009 766.836 140.31 766.57 139.458 766.57C138.606 766.57 137.903 766.824 137.349 767.332C136.802 767.832 136.442 768.613 136.27 769.676ZM158.102 771.023C158.102 772.133 157.888 773.164 157.458 774.117C157.028 775.07 156.392 775.84 155.548 776.426C154.712 777.004 153.669 777.293 152.419 777.293C151.2 777.293 150.177 776.98 149.349 776.355C148.52 775.73 147.895 774.859 147.474 773.742C147.06 772.625 146.852 771.328 146.852 769.852C146.852 768.641 146.954 767.469 147.157 766.336C147.36 765.195 147.751 764.137 148.329 763.16C148.915 762.176 149.77 761.32 150.895 760.594C151.427 760.25 151.97 760.004 152.524 759.855C153.079 759.699 153.642 759.59 154.212 759.527C154.79 759.465 155.372 759.402 155.958 759.34C156.552 759.27 157.149 759.141 157.751 758.953L157.106 761.062C156.419 761.305 155.782 761.449 155.196 761.496C154.618 761.535 154.063 761.59 153.532 761.66C153.009 761.723 152.481 761.914 151.95 762.234C151.505 762.5 151.063 762.883 150.626 763.383C150.196 763.883 149.837 764.484 149.548 765.188C149.259 765.883 149.102 766.668 149.079 767.543C149.47 766.973 150.017 766.465 150.72 766.02C151.431 765.566 152.27 765.34 153.239 765.34C154.263 765.34 155.138 765.605 155.864 766.137C156.591 766.66 157.145 767.355 157.528 768.223C157.911 769.082 158.102 770.016 158.102 771.023ZM152.712 767.273C152.134 767.273 151.618 767.402 151.165 767.66C150.72 767.91 150.321 768.234 149.97 768.633C149.626 769.023 149.31 769.434 149.02 769.863V770.379C149.02 770.879 149.087 771.422 149.22 772.008C149.352 772.586 149.56 773.137 149.841 773.66C150.122 774.176 150.489 774.598 150.942 774.926C151.403 775.254 151.954 775.418 152.595 775.418C153.259 775.418 153.841 775.242 154.341 774.891C154.841 774.539 155.231 774.059 155.513 773.449C155.794 772.832 155.935 772.141 155.935 771.375C155.935 770.711 155.833 770.066 155.63 769.441C155.427 768.809 155.087 768.289 154.61 767.883C154.142 767.477 153.509 767.273 152.712 767.273ZM161.267 777V770.789C161.267 769.648 161.255 768.562 161.231 767.531C161.216 766.492 161.169 765.664 161.091 765.047H163.435V769.734H169.294V765.047H171.462V771.258C171.462 772.398 171.47 773.488 171.485 774.527C171.509 775.559 171.56 776.383 171.638 777H169.294V771.434H163.435V777H161.267ZM174.626 771.082C174.626 769.738 174.884 768.602 175.399 767.672C175.923 766.734 176.614 766.023 177.474 765.539C178.341 765.055 179.286 764.812 180.31 764.812C181.388 764.812 182.333 765.055 183.145 765.539C183.966 766.023 184.606 766.734 185.067 767.672C185.528 768.602 185.759 769.738 185.759 771.082C185.759 772.426 185.497 773.559 184.974 774.48C184.458 775.402 183.77 776.102 182.911 776.578C182.052 777.055 181.106 777.293 180.075 777.293C179.005 777.293 178.06 777.055 177.239 776.578C176.419 776.102 175.778 775.402 175.317 774.48C174.856 773.559 174.626 772.426 174.626 771.082ZM176.794 771.082C176.794 772.449 177.106 773.516 177.731 774.281C178.364 775.039 179.185 775.418 180.192 775.418C181.138 775.418 181.938 775.039 182.595 774.281C183.259 773.516 183.591 772.449 183.591 771.082C183.591 769.707 183.274 768.633 182.642 767.859C182.017 767.078 181.2 766.688 180.192 766.688C179.247 766.688 178.442 767.078 177.778 767.859C177.122 768.633 176.794 769.707 176.794 771.082ZM198.462 771.316H190.153C190.192 772.684 190.56 773.699 191.255 774.363C191.958 775.027 192.841 775.359 193.903 775.359C194.661 775.359 195.403 775.273 196.13 775.102C196.864 774.922 197.587 774.617 198.298 774.188L198.532 776.121C197.704 776.551 196.903 776.852 196.13 777.023C195.356 777.203 194.517 777.293 193.61 777.293C192.618 777.293 191.692 777.062 190.833 776.602C189.981 776.141 189.294 775.457 188.77 774.551C188.247 773.645 187.985 772.527 187.985 771.199C187.985 769.902 188.212 768.777 188.665 767.824C189.126 766.871 189.774 766.133 190.61 765.609C191.454 765.078 192.454 764.812 193.61 764.812C194.579 764.812 195.376 764.977 196.001 765.305C196.634 765.633 197.13 766.07 197.489 766.617C197.849 767.164 198.102 767.77 198.251 768.434C198.399 769.09 198.474 769.746 198.474 770.402C198.474 770.504 198.474 770.656 198.474 770.859C198.474 771.055 198.47 771.207 198.462 771.316ZM190.247 769.676H196.364C196.364 768.668 196.087 767.898 195.532 767.367C194.985 766.836 194.286 766.57 193.435 766.57C192.583 766.57 191.88 766.824 191.325 767.332C190.778 767.832 190.419 768.613 190.247 769.676ZM85.8915 804.047V810.258C85.8915 811.398 85.8994 812.488 85.915 813.527C85.9384 814.559 85.9892 815.383 86.0673 816H83.7236V805.746H78.0986V816H75.9306V804.047H85.8915ZM89.1845 810.082C89.1845 808.738 89.4423 807.602 89.9579 806.672C90.4814 805.734 91.1728 805.023 92.0322 804.539C92.8994 804.055 93.8447 803.812 94.8681 803.812C95.9462 803.812 96.8915 804.055 97.704 804.539C98.5244 805.023 99.165 805.734 99.6259 806.672C100.087 807.602 100.317 808.738 100.317 810.082C100.317 811.426 100.056 812.559 99.5322 813.48C99.0165 814.402 98.329 815.102 97.4697 815.578C96.6103 816.055 95.665 816.293 94.6337 816.293C93.5634 816.293 92.6181 816.055 91.7978 815.578C90.9775 815.102 90.3369 814.402 89.8759 813.48C89.415 812.559 89.1845 811.426 89.1845 810.082ZM91.3525 810.082C91.3525 811.449 91.665 812.516 92.29 813.281C92.9228 814.039 93.7431 814.418 94.7509 814.418C95.6962 814.418 96.497 814.039 97.1533 813.281C97.8173 812.516 98.1494 811.449 98.1494 810.082C98.1494 808.707 97.8329 807.633 97.2001 806.859C96.5751 806.078 95.7587 805.688 94.7509 805.688C93.8056 805.688 93.0009 806.078 92.3369 806.859C91.6806 807.633 91.3525 808.707 91.3525 810.082ZM110.923 816H108.931L104.829 804.047H106.645L109.927 813.656L113.208 804.047H115.024L110.923 816ZM116.841 816H114.849L114.497 805.57L114.204 804.047H116.138C116.138 804.047 116.149 804.301 116.173 804.809C116.196 805.309 116.227 805.965 116.267 806.777C116.306 807.59 116.349 808.469 116.395 809.414C116.442 810.359 116.493 811.285 116.548 812.191C116.602 813.098 116.653 813.891 116.7 814.57C116.755 815.25 116.802 815.727 116.841 816ZM105.063 816H103.071C103.11 815.727 103.149 815.25 103.188 814.57C103.227 813.891 103.27 813.098 103.317 812.191C103.364 811.285 103.407 810.359 103.446 809.414C103.485 808.469 103.52 807.59 103.552 806.777C103.583 805.965 103.606 805.309 103.622 804.809C103.645 804.301 103.657 804.047 103.657 804.047H105.591L105.356 805.57L105.063 816ZM130.083 810.316H121.774C121.813 811.684 122.181 812.699 122.876 813.363C123.579 814.027 124.462 814.359 125.524 814.359C126.282 814.359 127.024 814.273 127.751 814.102C128.485 813.922 129.208 813.617 129.919 813.188L130.153 815.121C129.325 815.551 128.524 815.852 127.751 816.023C126.977 816.203 126.138 816.293 125.231 816.293C124.239 816.293 123.313 816.062 122.454 815.602C121.602 815.141 120.915 814.457 120.392 813.551C119.868 812.645 119.606 811.527 119.606 810.199C119.606 808.902 119.833 807.777 120.286 806.824C120.747 805.871 121.395 805.133 122.231 804.609C123.075 804.078 124.075 803.812 125.231 803.812C126.2 803.812 126.997 803.977 127.622 804.305C128.255 804.633 128.751 805.07 129.11 805.617C129.47 806.164 129.724 806.77 129.872 807.434C130.02 808.09 130.095 808.746 130.095 809.402C130.095 809.504 130.095 809.656 130.095 809.859C130.095 810.055 130.091 810.207 130.083 810.316ZM121.868 808.676H127.985C127.985 807.668 127.708 806.898 127.153 806.367C126.606 805.836 125.907 805.57 125.056 805.57C124.204 805.57 123.501 805.824 122.946 806.332C122.399 806.832 122.04 807.613 121.868 808.676ZM148.036 816H133.388V809.789C133.388 808.648 133.376 807.562 133.352 806.531C133.337 805.492 133.29 804.664 133.212 804.047H135.556V814.301H139.716V804.047H141.884V814.301H146.044V804.047H148.388C148.31 804.664 148.259 805.492 148.235 806.531C148.22 807.562 148.212 808.648 148.212 809.789V814.301H150.087V821.156H148.388C148.388 820.656 148.376 820.098 148.352 819.48C148.337 818.871 148.306 818.258 148.259 817.641C148.212 817.031 148.138 816.484 148.036 816ZM162.263 810.316H153.954C153.993 811.684 154.36 812.699 155.056 813.363C155.759 814.027 156.642 814.359 157.704 814.359C158.462 814.359 159.204 814.273 159.931 814.102C160.665 813.922 161.388 813.617 162.099 813.188L162.333 815.121C161.505 815.551 160.704 815.852 159.931 816.023C159.157 816.203 158.317 816.293 157.411 816.293C156.419 816.293 155.493 816.062 154.634 815.602C153.782 815.141 153.095 814.457 152.571 813.551C152.048 812.645 151.786 811.527 151.786 810.199C151.786 808.902 152.013 807.777 152.466 806.824C152.927 805.871 153.575 805.133 154.411 804.609C155.255 804.078 156.255 803.812 157.411 803.812C158.38 803.812 159.177 803.977 159.802 804.305C160.435 804.633 160.931 805.07 161.29 805.617C161.649 806.164 161.903 806.77 162.052 807.434C162.2 808.09 162.274 808.746 162.274 809.402C162.274 809.504 162.274 809.656 162.274 809.859C162.274 810.055 162.27 810.207 162.263 810.316ZM154.048 808.676H160.165C160.165 807.668 159.888 806.898 159.333 806.367C158.786 805.836 158.087 805.57 157.235 805.57C156.384 805.57 155.681 805.824 155.126 806.332C154.579 806.832 154.22 807.613 154.048 808.676ZM165.567 816V809.789C165.567 808.648 165.556 807.562 165.532 806.531C165.517 805.492 165.47 804.664 165.392 804.047H167.735V808.734H173.595V804.047H175.763V810.258C175.763 811.398 175.77 812.488 175.786 813.527C175.81 814.559 175.86 815.383 175.938 816H173.595V810.434H167.735V816H165.567ZM179.688 804.047H181.739V812.684L188.243 804.609V804.047H190.177V812.426C190.177 813.23 190.181 813.945 190.188 814.57C190.204 815.195 190.239 815.672 190.294 816H188.243V807.41L181.739 815.438V816H179.806V807.621C179.806 806.809 179.802 806.094 179.794 805.477C179.786 804.852 179.751 804.375 179.688 804.047ZM203.77 810.316H195.462C195.501 811.684 195.868 812.699 196.563 813.363C197.267 814.027 198.149 814.359 199.212 814.359C199.97 814.359 200.712 814.273 201.438 814.102C202.173 813.922 202.895 813.617 203.606 813.188L203.841 815.121C203.013 815.551 202.212 815.852 201.438 816.023C200.665 816.203 199.825 816.293 198.919 816.293C197.927 816.293 197.001 816.062 196.142 815.602C195.29 815.141 194.602 814.457 194.079 813.551C193.556 812.645 193.294 811.527 193.294 810.199C193.294 808.902 193.52 807.777 193.974 806.824C194.435 805.871 195.083 805.133 195.919 804.609C196.763 804.078 197.763 803.812 198.919 803.812C199.888 803.812 200.685 803.977 201.31 804.305C201.942 804.633 202.438 805.07 202.798 805.617C203.157 806.164 203.411 806.77 203.56 807.434C203.708 808.09 203.782 808.746 203.782 809.402C203.782 809.504 203.782 809.656 203.782 809.859C203.782 810.055 203.778 810.207 203.77 810.316ZM195.556 808.676H201.673C201.673 807.668 201.395 806.898 200.841 806.367C200.294 805.836 199.595 805.57 198.743 805.57C197.892 805.57 197.188 805.824 196.634 806.332C196.087 806.832 195.727 807.613 195.556 808.676Z" fill="white" fill-opacity="0.3"/>
<line x1="276.278" y1="668" x2="276.278" y2="904" stroke="white" stroke-opacity="0.3" stroke-dasharray="5 5"/>
<rect x="2" y="1" width="960" height="220" fill="#383838"/>
<rect x="2.5" y="1.5" width="959" height="219" stroke="white" stroke-opacity="0.6"/>
<rect x="317.259" y="252" width="290.37" height="14" fill="#383838"/>
<rect x="317.759" y="252.5" width="289.37" height="13" stroke="white" stroke-opacity="0.3"/>
<rect x="317.259" y="241" width="290.37" height="16" fill="#383838"/>
<rect x="317.759" y="241.5" width="289.37" height="15" stroke="white" stroke-opacity="0.4"/>
<rect x="317.259" y="221" width="290.37" height="23" fill="#383838"/>
<rect x="317.759" y="221.5" width="289.37" height="22" stroke="white" stroke-opacity="0.5"/>
<path d="M708.379 552.207V556.65H710.674C711.866 556.65 712.715 556.452 713.223 556.055C713.737 555.651 713.995 555.085 713.995 554.355C713.995 553.626 713.76 553.079 713.292 552.715C712.823 552.344 712.048 552.158 710.967 552.158C710.44 552.158 709.929 552.165 709.434 552.178C708.939 552.184 708.588 552.194 708.379 552.207ZM716.631 560.898C716.631 561.686 716.436 562.399 716.045 563.037C715.661 563.669 715.062 564.17 714.249 564.541C713.441 564.912 712.396 565.098 711.114 565.098C709.974 565.098 708.995 565.088 708.174 565.068C707.361 565.049 706.762 565.026 706.377 565C706.449 564.609 706.491 564.014 706.504 563.213C706.517 562.406 706.524 561.52 706.524 560.557V555.234C706.524 554.277 706.517 553.389 706.504 552.568C706.491 551.742 706.449 551.133 706.377 550.742C706.807 550.71 707.452 550.687 708.311 550.674C709.177 550.654 710.095 550.645 711.065 550.645C712.562 550.645 713.741 550.895 714.6 551.396C715.466 551.898 715.899 552.786 715.899 554.062C715.899 554.883 715.665 555.547 715.196 556.055C714.734 556.556 714.17 556.934 713.506 557.188C714.008 557.318 714.496 557.52 714.971 557.793C715.453 558.06 715.85 558.441 716.163 558.936C716.475 559.43 716.631 560.085 716.631 560.898ZM708.379 558.164V563.486C708.607 563.493 708.956 563.503 709.424 563.516C709.893 563.529 710.472 563.535 711.163 563.535C711.788 563.535 712.37 563.457 712.911 563.301C713.451 563.145 713.887 562.874 714.219 562.49C714.558 562.106 714.727 561.576 714.727 560.898C714.727 559.948 714.411 559.255 713.78 558.818C713.155 558.382 712.25 558.164 711.065 558.164H708.379ZM725.821 555.039H728.067C727.735 555.475 727.461 555.833 727.247 556.113C727.032 556.393 726.84 556.65 726.67 556.885C726.508 557.113 726.322 557.376 726.114 557.676L724.502 560.068L726.163 562.363C726.397 562.689 726.599 562.962 726.768 563.184C726.937 563.398 727.123 563.639 727.325 563.906C727.533 564.173 727.813 564.538 728.165 565H725.918L723.331 561.387L720.792 565H718.545C718.903 564.531 719.187 564.157 719.395 563.877C719.61 563.597 719.799 563.346 719.961 563.125C720.124 562.904 720.303 562.65 720.499 562.363L722.256 559.824L720.694 557.676C720.479 557.37 720.284 557.103 720.108 556.875C719.932 556.641 719.734 556.387 719.512 556.113C719.291 555.833 719.001 555.475 718.643 555.039H720.889L723.428 558.555L725.821 555.039ZM729.59 560.068C729.59 558.949 729.805 558.001 730.235 557.227C730.671 556.445 731.247 555.853 731.963 555.449C732.686 555.046 733.474 554.844 734.327 554.844C735.225 554.844 736.013 555.046 736.69 555.449C737.374 555.853 737.907 556.445 738.292 557.227C738.676 558.001 738.868 558.949 738.868 560.068C738.868 561.188 738.65 562.132 738.213 562.9C737.784 563.669 737.211 564.251 736.495 564.648C735.778 565.046 734.991 565.244 734.131 565.244C733.239 565.244 732.452 565.046 731.768 564.648C731.084 564.251 730.551 563.669 730.167 562.9C729.782 562.132 729.59 561.188 729.59 560.068ZM731.397 560.068C731.397 561.208 731.657 562.096 732.178 562.734C732.706 563.366 733.389 563.682 734.229 563.682C735.017 563.682 735.684 563.366 736.231 562.734C736.784 562.096 737.061 561.208 737.061 560.068C737.061 558.923 736.797 558.027 736.27 557.383C735.749 556.732 735.069 556.406 734.229 556.406C733.441 556.406 732.771 556.732 732.217 557.383C731.67 558.027 731.397 558.923 731.397 560.068ZM740.04 563.584H741.407C742.045 562.386 742.598 561.12 743.067 559.785C743.542 558.444 743.917 556.862 744.19 555.039H750.147C750.082 555.553 750.04 556.243 750.02 557.109C750.007 557.969 750 558.874 750 559.824V563.584H751.563V569.297H750.147C750.147 568.88 750.137 568.415 750.118 567.9C750.105 567.393 750.079 566.882 750.04 566.367C750 565.859 749.939 565.404 749.854 565H741.749C741.67 565.404 741.609 565.859 741.563 566.367C741.524 566.882 741.495 567.393 741.475 567.9C741.462 568.415 741.456 568.88 741.456 569.297H740.04V563.584ZM743.262 563.584H748.292V556.455H745.704C745.424 557.777 745.075 559.02 744.659 560.186C744.249 561.351 743.783 562.484 743.262 563.584Z" fill="white"/>
<mask id="path-36-inside-2_84_76" fill="white">
<path fill-rule="evenodd" clip-rule="evenodd" d="M605.259 29V1.00001L959.63 1V2.00003H962V184H925.111C914.065 184 905.111 175.046 905.111 164V49L625.259 49C614.214 49 605.259 40.0457 605.259 29Z"/>
</mask>
<path fill-rule="evenodd" clip-rule="evenodd" d="M605.259 29V1.00001L959.63 1V2.00003H962V184H925.111C914.065 184 905.111 175.046 905.111 164V49L625.259 49C614.214 49 605.259 40.0457 605.259 29Z" fill="#383838"/>
<path d="M605.259 1.00001H604.259V1.3113e-05L605.259 1.30534e-05V1.00001ZM959.63 1V0H960.63V1H959.63ZM959.63 2.00003V3.00003H958.63V2.00003H959.63ZM962 2.00003V1.00003H963V2.00003H962ZM962 184H963V185H962V184ZM905.111 49V48H906.111V49H905.111ZM625.259 49V50V49ZM606.259 1.00001V29H604.259V1.00001H606.259ZM959.63 2L605.259 2.00001V1.30534e-05L959.63 0V2ZM958.63 2.00003V1H960.63V2.00003H958.63ZM962 3.00003H959.63V1.00003H962V3.00003ZM961 184V2.00003H963V184H961ZM925.111 183H962V185H925.111V183ZM906.111 164C906.111 174.493 914.618 183 925.111 183V185C913.513 185 904.111 175.598 904.111 164H906.111ZM906.111 49V164H904.111V49H906.111ZM625.259 48L905.111 48V50L625.259 50V48ZM606.259 29C606.259 39.4934 614.766 48 625.259 48V50C613.661 50 604.259 40.598 604.259 29H606.259Z" fill="white" mask="url(#path-36-inside-2_84_76)"/>
<rect x="-0.5" y="0.5" width="233.667" height="79" transform="matrix(-1 0 0 1 868.556 78)" fill="#383838" stroke="white"/>
<path d="M750.984 125.195C750.317 125.195 749.679 125.062 749.07 124.797C748.46 124.531 747.963 124.148 747.577 123.648C747.192 123.143 746.999 122.539 746.999 121.836C746.999 121.299 747.098 120.839 747.296 120.453C747.494 120.062 747.749 119.734 748.062 119.469C748.374 119.198 748.697 118.971 749.031 118.789C748.827 118.674 748.603 118.521 748.359 118.328C748.119 118.13 747.911 117.872 747.734 117.555C747.557 117.237 747.468 116.841 747.468 116.367C747.468 115.727 747.642 115.188 747.991 114.75C748.346 114.307 748.796 113.971 749.343 113.742C749.89 113.513 750.463 113.398 751.062 113.398C751.661 113.398 752.221 113.513 752.741 113.742C753.267 113.971 753.692 114.307 754.015 114.75C754.338 115.188 754.499 115.727 754.499 116.367C754.499 116.841 754.413 117.234 754.241 117.547C754.075 117.854 753.872 118.107 753.632 118.305C753.398 118.497 753.179 118.659 752.976 118.789C753.262 118.935 753.559 119.146 753.866 119.422C754.174 119.693 754.434 120.029 754.648 120.43C754.861 120.831 754.968 121.299 754.968 121.836C754.968 122.539 754.775 123.143 754.39 123.648C754.004 124.148 753.507 124.531 752.898 124.797C752.294 125.062 751.656 125.195 750.984 125.195ZM753.015 116.367C753.015 115.794 752.814 115.365 752.413 115.078C752.017 114.792 751.541 114.648 750.984 114.648C750.426 114.648 749.947 114.792 749.546 115.078C749.15 115.365 748.952 115.794 748.952 116.367C748.952 116.977 749.15 117.443 749.546 117.766C749.947 118.083 750.426 118.242 750.984 118.242C751.541 118.242 752.017 118.083 752.413 117.766C752.814 117.443 753.015 116.977 753.015 116.367ZM753.406 121.68C753.406 121.029 753.176 120.495 752.718 120.078C752.26 119.661 751.682 119.453 750.984 119.453C750.281 119.453 749.7 119.661 749.241 120.078C748.788 120.495 748.562 121.029 748.562 121.68C748.562 122.362 748.788 122.898 749.241 123.289C749.7 123.674 750.281 123.867 750.984 123.867C751.682 123.867 752.26 123.674 752.718 123.289C753.176 122.898 753.406 122.362 753.406 121.68Z" fill="white"/>
<mask id="path-40-inside-3_84_76" fill="white">
<path fill-rule="evenodd" clip-rule="evenodd" d="M358.741 29V1.00001L4.37027 1V2.00003H2V184H38.8889C49.9346 184 58.8889 175.046 58.8889 164V49L338.741 49C349.786 49 358.741 40.0457 358.741 29Z"/>
</mask>
<path fill-rule="evenodd" clip-rule="evenodd" d="M358.741 29V1.00001L4.37027 1V2.00003H2V184H38.8889C49.9346 184 58.8889 175.046 58.8889 164V49L338.741 49C349.786 49 358.741 40.0457 358.741 29Z" fill="#383838"/>
<path d="M358.741 1.00001H359.741V1.3113e-05L358.741 1.30534e-05V1.00001ZM4.37027 1V0H3.37027V1H4.37027ZM4.37027 2.00003V3.00003H5.37027V2.00003H4.37027ZM2 2.00003V1.00003H1V2.00003H2ZM2 184H1V185H2V184ZM58.8889 49V48H57.8889V49H58.8889ZM338.741 49V50V49ZM357.741 1.00001V29H359.741V1.00001H357.741ZM4.37027 2L358.741 2.00001V1.30534e-05L4.37027 0V2ZM5.37027 2.00003V1H3.37027V2.00003H5.37027ZM2 3.00003H4.37027V1.00003H2V3.00003ZM3 184V2.00003H1V184H3ZM38.8889 183H2V185H38.8889V183ZM57.8889 164C57.8889 174.493 49.3823 183 38.8889 183V185C50.4869 185 59.8889 175.598 59.8889 164H57.8889ZM57.8889 49V164H59.8889V49H57.8889ZM338.741 48L58.8889 48V50L338.741 50V48ZM357.741 29C357.741 39.4934 349.234 48 338.741 48V50C350.339 50 359.741 40.598 359.741 29H357.741Z" fill="white" mask="url(#path-40-inside-3_84_76)"/>
<rect x="94.9443" y="78.5" width="233.667" height="79" fill="#383838" stroke="white"/>
<path d="M203.52 125H202.074C202.397 123.896 202.725 122.885 203.059 121.969C203.397 121.052 203.751 120.198 204.121 119.406C204.496 118.609 204.897 117.844 205.324 117.109C205.751 116.375 206.217 115.633 206.723 114.883H203.676C202.941 114.883 202.337 114.893 201.863 114.914C201.389 114.935 201.004 114.977 200.707 115.039V113.594H208.441V114.844C207.285 116.427 206.301 118.068 205.488 119.766C204.681 121.464 204.025 123.208 203.52 125Z" fill="white"/>
<path d="M657.907 276.5H961.5V300C961.5 310.77 952.77 319.5 942 319.5H677.407C666.638 319.5 657.907 310.77 657.907 300V276.5Z" fill="#383838" stroke="white"/>
<path d="M961.5 461.5H657.907V438C657.907 427.23 666.638 418.5 677.407 418.5H942C952.77 418.5 961.5 427.23 961.5 438V461.5Z" fill="#383838" stroke="white"/>
<rect x="675.685" y="340.5" width="113.963" height="57" fill="#383838" stroke="white"/>
<rect x="838.055" y="340.5" width="105.667" height="57" fill="#383838" stroke="white"/>
<circle cx="643.5" cy="369.5" r="13" fill="#383838" stroke="white"/>
<path d="M893.033 366.102L892.689 367.625C892.356 367.286 892.01 367.06 891.65 366.945C891.291 366.826 890.924 366.766 890.549 366.766C889.934 366.766 889.385 366.935 888.9 367.273C888.416 367.612 888.036 368.161 887.76 368.922C887.484 369.677 887.346 370.69 887.346 371.961C887.346 372.617 887.437 373.242 887.619 373.836C887.801 374.424 888.08 374.904 888.455 375.273C888.835 375.643 889.312 375.828 889.885 375.828C890.572 375.828 891.122 375.615 891.533 375.188C891.945 374.755 892.15 374.227 892.15 373.602C892.15 372.914 891.965 372.372 891.596 371.977C891.231 371.576 890.7 371.375 890.002 371.375C889.398 371.375 888.851 371.497 888.361 371.742C887.877 371.982 887.473 372.302 887.15 372.703L886.643 372.117C887.085 371.513 887.596 371.01 888.174 370.609C888.752 370.208 889.413 370.008 890.158 370.008C890.882 370.008 891.507 370.151 892.033 370.438C892.559 370.719 892.963 371.109 893.244 371.609C893.531 372.104 893.674 372.677 893.674 373.328C893.674 374.12 893.505 374.805 893.166 375.383C892.827 375.961 892.356 376.409 891.752 376.727C891.153 377.039 890.452 377.195 889.65 377.195C888.442 377.195 887.502 376.706 886.83 375.727C886.158 374.742 885.822 373.396 885.822 371.688C885.822 370.969 885.9 370.24 886.057 369.5C886.213 368.76 886.471 368.081 886.83 367.461C887.195 366.841 887.687 366.344 888.307 365.969C888.926 365.589 889.7 365.398 890.627 365.398C891.09 365.398 891.505 365.448 891.869 365.547C892.239 365.641 892.627 365.826 893.033 366.102Z" fill="white"/>
<path d="M728.857 371.648V365.594H735.146V367.078C734.854 367.016 734.557 366.974 734.255 366.953C733.953 366.932 733.638 366.922 733.31 366.922H730.302V369.812C730.422 369.797 730.594 369.781 730.818 369.766C731.047 369.745 731.305 369.734 731.591 369.734C732.341 369.734 733.018 369.885 733.622 370.188C734.232 370.49 734.716 370.909 735.075 371.445C735.435 371.977 735.615 372.591 735.615 373.289C735.615 374.102 735.43 374.799 735.06 375.383C734.695 375.966 734.195 376.414 733.56 376.727C732.924 377.039 732.198 377.195 731.38 377.195C730.776 377.195 730.242 377.133 729.779 377.008C729.315 376.888 728.838 376.677 728.349 376.375L728.583 374.734C729.109 375.156 729.586 375.438 730.013 375.578C730.44 375.719 730.927 375.789 731.474 375.789C732.255 375.789 732.893 375.576 733.388 375.148C733.883 374.721 734.13 374.115 734.13 373.328C734.13 372.802 733.982 372.38 733.685 372.062C733.393 371.74 733.029 371.505 732.591 371.359C732.159 371.214 731.734 371.141 731.318 371.141C730.906 371.141 730.513 371.18 730.138 371.258C729.768 371.331 729.341 371.461 728.857 371.648Z" fill="white"/>
<path d="M657.907 464.5H961.5V488C961.5 498.77 952.77 507.5 942 507.5H677.407C666.638 507.5 657.907 498.77 657.907 488V464.5Z" fill="#383838" stroke="white"/>
<path d="M961.5 649.5H657.907V626C657.907 615.23 666.638 606.5 677.407 606.5H942C952.77 606.5 961.5 615.23 961.5 626V649.5Z" fill="#383838" stroke="white"/>
<rect x="675.685" y="528.5" width="113.963" height="57" fill="#383838" stroke="white"/>
<rect x="838.055" y="528.5" width="105.667" height="57" fill="#383838" stroke="white"/>
<circle cx="643.5" cy="559.5" r="13" fill="#383838" stroke="white"/>
<path d="M735.771 562.594V564H728.271V562.672C728.693 562.37 729.148 562.01 729.638 561.594C730.128 561.172 730.609 560.719 731.083 560.234C731.557 559.745 731.987 559.245 732.372 558.734C732.763 558.224 733.075 557.721 733.31 557.227C733.544 556.732 733.661 556.268 733.661 555.836C733.661 555.346 733.552 554.953 733.333 554.656C733.12 554.359 732.844 554.143 732.505 554.008C732.167 553.872 731.81 553.805 731.435 553.805C730.956 553.805 730.461 553.94 729.95 554.211C729.44 554.482 729.01 554.828 728.661 555.25L728.31 553.922C728.523 553.63 728.812 553.37 729.177 553.141C729.542 552.911 729.945 552.732 730.388 552.602C730.831 552.466 731.271 552.398 731.708 552.398C732.333 552.398 732.911 552.534 733.443 552.805C733.979 553.07 734.409 553.448 734.732 553.938C735.06 554.427 735.224 555.008 735.224 555.68C735.224 556.206 735.112 556.74 734.888 557.281C734.669 557.818 734.378 558.346 734.013 558.867C733.648 559.388 733.25 559.885 732.818 560.359C732.391 560.833 731.963 561.271 731.536 561.672C731.109 562.073 730.724 562.419 730.38 562.711H732.372C733.143 562.711 733.823 562.706 734.411 562.695C735.005 562.68 735.458 562.646 735.771 562.594Z" fill="white"/>
<path d="M888.166 558.203H888.713C889.234 558.203 889.713 558.112 890.15 557.93C890.588 557.742 890.939 557.503 891.205 557.211C891.471 556.919 891.604 556.612 891.604 556.289C891.604 555.935 891.499 555.646 891.291 555.422C891.083 555.198 890.822 555.034 890.51 554.93C890.202 554.82 889.89 554.766 889.572 554.766C888.973 554.766 888.445 554.854 887.986 555.031C887.533 555.208 887.085 555.523 886.643 555.977L886.369 554.648C886.682 554.294 887.117 553.997 887.674 553.758C888.236 553.518 888.843 553.398 889.494 553.398C890.14 553.398 890.734 553.508 891.275 553.727C891.822 553.94 892.26 554.25 892.588 554.656C892.921 555.057 893.088 555.536 893.088 556.094C893.088 556.568 892.955 556.992 892.689 557.367C892.429 557.737 892.106 558.042 891.721 558.281C891.335 558.516 890.958 558.672 890.588 558.75C890.864 558.797 891.169 558.888 891.502 559.023C891.835 559.154 892.15 559.341 892.447 559.586C892.749 559.826 892.997 560.13 893.189 560.5C893.382 560.87 893.479 561.315 893.479 561.836C893.479 562.294 893.364 562.727 893.135 563.133C892.906 563.539 892.593 563.898 892.197 564.211C891.801 564.518 891.346 564.76 890.83 564.938C890.32 565.109 889.783 565.195 889.221 565.195C888.528 565.195 887.89 565.076 887.307 564.836C886.729 564.596 886.234 564.286 885.822 563.906L886.018 562.227C886.445 562.706 886.934 563.094 887.486 563.391C888.044 563.682 888.674 563.828 889.377 563.828C889.778 563.828 890.176 563.75 890.572 563.594C890.968 563.432 891.296 563.193 891.557 562.875C891.822 562.557 891.955 562.159 891.955 561.68C891.955 561.253 891.812 560.88 891.525 560.562C891.244 560.24 890.859 559.987 890.369 559.805C889.88 559.622 889.327 559.531 888.713 559.531H888.166V558.203Z" fill="white"/>
<circle cx="406.5" cy="369.5" r="13" fill="#383838" stroke="white"/>
<circle cx="565.5" cy="369.5" r="13" fill="#383838" stroke="white"/>
<circle cx="484" cy="370" r="48.5" fill="#383838" stroke="white"/>
<path d="M489.789 372.914H488.305V376H486.82V372.914H481.703V371.703L486.82 364.438H488.305V371.703H489.789V372.914ZM486.82 366.391L483.055 371.703H486.82V366.391Z" fill="white"/>
<circle cx="406.5" cy="559.5" r="13" fill="#383838" stroke="white"/>
<circle cx="565.5" cy="559.5" r="13" fill="#383838" stroke="white"/>
<circle cx="484" cy="561" r="48.5" fill="#383838" stroke="white"/>
<path d="M482.18 564.672V556.156L479.836 557.5L479.641 556.094L482.336 554.438H483.664V564.672H486.125V566H479.719V564.672H482.18Z" fill="white"/>
</svg>
